<svg width="46" height="28" viewBox="0 0 46 28" fill="none" xmlns="http://www.w3.org/2000/svg">
<g id="Group 12">
<path id="Vector" d="M8.97461 5.31293V9.35829C8.97461 9.50843 9.03425 9.65242 9.14042 9.75859C9.24658 9.86475 9.39057 9.9244 9.54071 9.9244C9.69085 9.9244 9.83484 9.86475 9.94101 9.75859C10.0472 9.65242 10.1068 9.50843 10.1068 9.35829V5.31293C10.1068 5.16279 10.0472 5.0188 9.94101 4.91263C9.83484 4.80647 9.69085 4.74683 9.54071 4.74683C9.39057 4.74683 9.24658 4.80647 9.14042 4.91263C9.03425 5.0188 8.97461 5.16279 8.97461 5.31293Z" fill="#87F54E"/>
<path id="Vector_2" d="M11.6504 4.07758V9.35818C11.6504 9.50832 11.71 9.65231 11.8162 9.75847C11.9224 9.86464 12.0664 9.92428 12.2165 9.92428C12.3666 9.92428 12.5106 9.86464 12.6168 9.75847C12.723 9.65231 12.7826 9.50832 12.7826 9.35818V4.07758C12.7826 3.92744 12.723 3.78345 12.6168 3.67728C12.5106 3.57112 12.3666 3.51147 12.2165 3.51147C12.0664 3.51147 11.9224 3.57112 11.8162 3.67728C11.71 3.78345 11.6504 3.92744 11.6504 4.07758Z" fill="#87F54E"/>
<path id="Vector_3" d="M14.1406 3.18671V9.35835C14.1406 9.50849 14.2003 9.65248 14.3064 9.75865C14.4126 9.86481 14.5566 9.92446 14.7067 9.92446C14.8569 9.92446 15.0009 9.86481 15.107 9.75865C15.2132 9.65248 15.2728 9.50849 15.2728 9.35835V3.18671C15.2728 3.03657 15.2132 2.89258 15.107 2.78641C15.0009 2.68025 14.8569 2.62061 14.7067 2.62061C14.5566 2.62061 14.4126 2.68025 14.3064 2.78641C14.2003 2.89258 14.1406 3.03657 14.1406 3.18671Z" fill="#87F54E"/>
<path id="Vector_4" d="M42.7493 6.34885H39.4781V5.7601C39.4781 5.24632 39.2738 4.75359 38.9103 4.39029C38.5467 4.02699 38.0536 3.8229 37.5394 3.8229C37.0252 3.8229 36.5321 4.02699 36.1685 4.39029C35.8049 4.75359 35.6006 5.24632 35.6006 5.7601V6.34885H34.6749V5.03775C34.6612 4.40557 34.4003 3.80388 33.948 3.36162C33.4957 2.91935 32.888 2.67169 32.2552 2.67169C31.6223 2.67169 31.0147 2.91935 30.5624 3.36162C30.1101 3.80388 29.8491 4.40557 29.8354 5.03775V5.70688H28.8938V3.45493C28.8929 2.65947 28.5763 1.89684 28.0134 1.33436C27.4505 0.771883 26.6872 0.455489 25.8911 0.45459H21.1174C20.9671 0.45459 20.823 0.514233 20.7168 0.620397C20.6105 0.726562 20.5509 0.870552 20.5509 1.02069C20.5509 1.17083 20.6105 1.31482 20.7168 1.42099C20.823 1.52715 20.9671 1.58679 21.1174 1.58679H24.6209V12.5579H4.42123C3.1023 11.5321 2.40318 10.3659 2.40318 9.14539C2.40472 8.11595 2.73279 7.11349 3.34025 6.28204L3.36405 6.24808C4.00425 5.36043 4.95718 4.57015 6.20699 3.89989C9.02726 2.38726 13.2175 1.58793 18.3243 1.58793C18.4746 1.58793 18.6187 1.52828 18.7249 1.42212C18.8312 1.31595 18.8909 1.17196 18.8909 1.02182C18.8909 0.871684 18.8312 0.727694 18.7249 0.621529C18.6187 0.515365 18.4746 0.455722 18.3243 0.455722C15.1664 0.455722 12.3359 0.756888 9.93148 1.33997L2.70912 1.10674C2.42822 1.09803 2.14969 1.16058 1.89953 1.28854C1.64938 1.4165 1.43574 1.60571 1.27858 1.83851C1.12141 2.0713 1.02583 2.34009 1.00077 2.61978C0.975706 2.89948 1.02197 3.18096 1.13525 3.43795L2.23548 5.90729C1.60633 6.87031 1.27092 7.99533 1.27009 9.14539C1.27009 11.6827 3.39917 13.8248 7.03188 15.3046L6.37922 18.6446C6.36495 18.718 6.36538 18.7935 6.38048 18.8667C6.39558 18.94 6.42505 19.0095 6.46719 19.0713C6.50934 19.1331 6.56331 19.1859 6.626 19.2268C6.6887 19.2676 6.75887 19.2956 6.83246 19.3092C6.86982 19.3162 6.90776 19.3196 6.94577 19.3194C7.07637 19.3194 7.20298 19.2743 7.30415 19.1918C7.40533 19.1093 7.47486 18.9944 7.50098 18.8665L8.10492 15.7122C9.23435 16.0965 10.3872 16.4085 11.5563 16.6462L10.8583 20.3972L9.79437 26.1171C9.76447 26.2788 9.67887 26.425 9.55242 26.5303C9.42597 26.6355 9.26663 26.6932 9.10205 26.6934H6.01096C5.92317 26.6931 5.8366 26.6728 5.75788 26.634C5.67917 26.5951 5.61039 26.5388 5.55681 26.4693C5.50322 26.3998 5.46626 26.319 5.44874 26.233C5.43123 26.1471 5.43362 26.0582 5.45574 25.9733L6.79506 20.8886C6.82988 20.7446 6.80679 20.5926 6.73073 20.4654C6.65467 20.3382 6.53173 20.2458 6.38828 20.2082C6.24484 20.1705 6.09234 20.1906 5.96354 20.264C5.83473 20.3375 5.73988 20.4585 5.69936 20.601L4.36004 25.6756C4.2916 25.9287 4.28248 26.1942 4.33337 26.4514C4.38427 26.7087 4.49381 26.9507 4.6535 27.1588C4.81319 27.3669 5.01872 27.5354 5.25414 27.6512C5.48957 27.7671 5.74854 27.8271 6.01096 27.8268H9.10205C9.53115 27.8266 9.94666 27.6763 10.2765 27.4021C10.6064 27.1279 10.8299 26.747 10.9082 26.3255L11.8441 21.2985L14.593 22.4443C14.9395 22.5887 15.3151 22.65 15.6896 22.6233C16.064 22.5965 16.4271 22.4825 16.7495 22.2903C17.0719 22.0981 17.3448 21.8331 17.5463 21.5166C17.7477 21.2 17.8722 20.8407 17.9096 20.4674L18.2257 17.4343C19.0302 17.4705 19.854 17.489 20.697 17.4897L22.817 17.5067H25.8911C26.687 17.5058 27.4501 17.1896 28.013 16.6273C28.5759 16.0651 28.8926 15.3028 28.8938 14.5075V12.2805H29.8354V13.0855C29.8285 13.4074 29.8859 13.7274 30.0044 14.0269C30.1228 14.3263 30.3 14.5991 30.5254 14.8292C30.7507 15.0594 31.0198 15.2422 31.3169 15.367C31.6139 15.4919 31.9329 15.5562 32.2552 15.5562C32.5774 15.5562 32.8964 15.4919 33.1935 15.367C33.4905 15.2422 33.7596 15.0594 33.985 14.8292C34.2104 14.5991 34.3875 14.3263 34.506 14.0269C34.6244 13.7274 34.6819 13.4074 34.6749 13.0855V11.1834H35.6029V12.2023C35.6029 12.7161 35.8072 13.2089 36.1707 13.5721C36.5343 13.9354 37.0275 14.1395 37.5416 14.1395C38.0558 14.1395 38.5489 13.9354 38.9125 13.5721C39.2761 13.2089 39.4804 12.7161 39.4804 12.2023V10.8833H42.7516C43.3526 10.8833 43.9291 10.6448 44.3541 10.2201C44.779 9.79543 45.0178 9.21947 45.0178 8.61891C45.0178 8.01836 44.779 7.44239 44.3541 7.01774C43.9291 6.59308 43.3526 6.35451 42.7516 6.35451L42.7493 6.34885ZM2.16976 2.97714C2.13261 2.89535 2.11726 2.80534 2.1252 2.71587C2.13314 2.6264 2.16411 2.5405 2.21509 2.46652C2.26351 2.39132 2.33088 2.33018 2.41044 2.28924C2.49 2.2483 2.57894 2.229 2.66833 2.23328L6.77693 2.36801C6.38715 2.53558 6.01663 2.70768 5.66537 2.90128C4.67909 3.41357 3.78496 4.08623 3.01959 4.8917L2.16976 2.97714ZM16.7822 20.3542C16.7616 20.551 16.6953 20.7403 16.5885 20.9069C16.4817 21.0736 16.3374 21.2129 16.1671 21.3139C15.9967 21.4149 15.8052 21.4747 15.6076 21.4885C15.4101 21.5024 15.212 21.4698 15.0293 21.3936L12.0549 20.1481L12.6702 16.8455C14.1331 17.0964 15.6081 17.271 17.0892 17.3686L16.7822 20.3542ZM20.7016 16.3621C15.4519 16.3621 10.7076 15.5922 7.34348 14.1962C6.9537 14.0339 6.5862 13.8652 6.24098 13.6901H24.6209V16.379H22.8216L20.7016 16.3621ZM27.7607 14.512C27.7599 15.0071 27.5625 15.4816 27.2121 15.8316C26.8616 16.1816 26.3866 16.3784 25.8911 16.379H25.754V1.58679H25.8911C26.3868 1.58739 26.862 1.78441 27.2125 2.13462C27.563 2.48483 27.7602 2.95965 27.7607 3.45493V14.512ZM28.8938 11.1483V6.83909H29.8354V11.1483H28.8938ZM33.5395 13.0855C33.5447 13.2575 33.5152 13.4288 33.4528 13.5893C33.3904 13.7497 33.2965 13.896 33.1765 14.0195C33.0565 14.143 32.913 14.2412 32.7543 14.3082C32.5957 14.3753 32.4252 14.4098 32.2529 14.4098C32.0807 14.4098 31.9102 14.3753 31.7515 14.3082C31.5929 14.2412 31.4493 14.143 31.3293 14.0195C31.2093 13.896 31.1154 13.7497 31.053 13.5893C30.9907 13.4288 30.9612 13.2575 30.9663 13.0855V5.03775C30.9762 4.70339 31.1161 4.38605 31.3563 4.15305C31.5965 3.92005 31.9181 3.78972 32.2529 3.78972C32.5877 3.78972 32.9093 3.92005 33.1495 4.15305C33.3897 4.38605 33.5296 4.70339 33.5395 5.03775V13.0855ZM34.6726 10.0545V7.48105H35.6029V10.0512L34.6726 10.0545ZM38.3427 12.2057C38.3271 12.4082 38.2354 12.5973 38.0862 12.735C37.9369 12.8728 37.741 12.9492 37.5378 12.9487C37.3346 12.9483 37.139 12.8711 36.9903 12.7327C36.8416 12.5943 36.7508 12.4049 36.736 12.2023V5.7601C36.736 5.5466 36.8209 5.34185 36.972 5.19088C37.1231 5.03991 37.328 4.9551 37.5416 4.9551C37.7553 4.9551 37.9602 5.03991 38.1113 5.19088C38.2624 5.34185 38.3473 5.5466 38.3473 5.7601L38.3427 12.2057ZM42.7471 9.75112H39.9529V7.48671H42.7493C43.0499 7.48671 43.3381 7.606 43.5506 7.81832C43.7631 8.03065 43.8824 8.31864 43.8824 8.61891C43.8824 8.91919 43.7631 9.20717 43.5506 9.4195C43.3381 9.63183 43.0499 9.75112 42.7493 9.75112H42.7471Z" fill="#87F54E"/>
</g>
</svg>
